# xmcd
#
# Track frame offsets:
#	150
#	18235
#	37860
#	51975
#	72492
#	89150
#	107552
#	133497
#	154125
#	167587
#
# Disc length: 2564 seconds
#
# Revision: 2
# Processed by: cddbd v1.4PL0 Copyright (c) Steve Scherf et al.
# Submitted via: audiograbber 1.80.04
#
DISCID=880a020a
DTITLE=Roomful of Blues - Watch You When You Go
DYEAR=2001
DGENRE=
TTITLE0=Roll Me Over
TTITLE1=The Salt Of My Tears
TTITLE2=You Give Me Nothin' But The Blues
TTITLE3=Your Love Was Never There
TTITLE4=Watch You When You Go
TTITLE5=Over My Head
TTITLE6=Backlash
TTITLE7=Fair Weather Friend
TTITLE8=Wait And See
TTITLE9=Where's Bubba?
EXTD=
EXTT0=
EXTT1=
EXTT2=
EXTT3=
EXTT4=
EXTT5=
EXTT6=
EXTT7=
EXTT8=
EXTT9=
PLAYORDER=
